<?xml version="1.0" encoding="utf-8"?>
<!-- Generator: Adobe Illustrator 21.1.0, SVG Export Plug-In . SVG Version: 6.00 Build 0)  -->
<svg version="1.1" id="Layer_2" xmlns="http://www.w3.org/2000/svg" xmlns:xlink="http://www.w3.org/1999/xlink" x="0px" y="0px"
	 viewBox="0 0 85 85" style="enable-background:new 0 0 85 85;" xml:space="preserve">
<style type="text/css">
	.st0{fill:none;stroke:#FAEBD7;stroke-width:2;stroke-linecap:round;stroke-linejoin:round;}
</style>
<title>weather_icon</title>
<path class="st0" d="M19,55.5c-7.6-6.1-8.9-17.3-2.7-24.9s17.3-8.9,24.9-2.7c2.6,2.1,4.6,4.9,5.7,8"/>
<line class="st0" x1="30.1" y1="10.2" x2="30.1" y2="21.3"/>
<line class="st0" x1="2.8" y1="25.9" x2="12.5" y2="31.5"/>
<line class="st0" x1="2.8" y1="57.4" x2="12.5" y2="51.8"/>
<line class="st0" x1="57.4" y1="25.9" x2="47.7" y2="31.5"/>
<line class="st0" x1="16.3" y1="17.8" x2="21.2" y2="26.2"/>
<line class="st0" x1="2.5" y1="41.7" x2="12.3" y2="41.7"/>
<line class="st0" x1="43.9" y1="17.8" x2="39" y2="26.2"/>
<path class="st0" d="M21,55.5h1.5c0.8-5.8,6.2-9.9,12-9.1c1,0.1,1.9,0.4,2.8,0.8c1.9-8.6,10.4-14,18.9-12.1c4.9,1.1,9,4.4,11.1,9
	c5-1.3,10,1.7,11.3,6.7c0.6,2.1,0.3,4.4-0.6,6.3c4.5,2.9,5.8,8.8,2.9,13.3c-1.8,2.8-4.8,4.4-8.1,4.4H21c-5.3,0-9.6-4.3-9.6-9.7
	C11.4,59.9,15.7,55.5,21,55.5L21,55.5z"/>
</svg>
