<?xml version="1.0" encoding="utf-8"?>
<!-- Generator: Adobe Illustrator 21.1.0, SVG Export Plug-In . SVG Version: 6.00 Build 0)  -->
<svg version="1.1" id="Layer_2" xmlns="http://www.w3.org/2000/svg" xmlns:xlink="http://www.w3.org/1999/xlink" x="0px" y="0px"
	 viewBox="0 0 80 75" style="enable-background:new 0 0 80 75;" xml:space="preserve">
<style type="text/css">
	.st0{fill:none;stroke:#FAEBD7;stroke-width:2;stroke-linecap:round;stroke-linejoin:round;}
</style>
<title>weather_icon</title>
<path class="st0" d="M38,22.7c-2.4-3.9-6.7-6.2-11.3-6.1c-5.3,0-10.2,3.1-12.3,8c-4.2-1.1-8.6,1.5-9.6,5.7c-0.5,1.8-0.3,3.6,0.5,5.3
	c-2.3,1.5-3.8,4.1-3.8,6.9c0,4.1,2.3,7.3,6.2,7.9"/>
<path class="st0" d="M17.1,39.1h1.5c0.8-5.8,6.2-9.9,12-9.1c1,0.1,1.9,0.4,2.8,0.8c1.9-8.6,10.4-14,18.9-12.1c4.9,1.1,9,4.4,11.1,9
	c5-1.3,10,1.7,11.3,6.7c0.6,2.1,0.3,4.4-0.6,6.3c4.5,2.9,5.8,8.8,2.9,13.3c-1.8,2.8-4.8,4.4-8.1,4.4H17.1c-5.3,0-9.6-4.3-9.6-9.7
	S11.8,39.2,17.1,39.1L17.1,39.1z"/>
</svg>
