<?xml version="1.0" encoding="utf-8"?>
<!-- Generator: Adobe Illustrator 21.1.0, SVG Export Plug-In . SVG Version: 6.00 Build 0)  -->
<svg version="1.1" id="Layer_2" xmlns="http://www.w3.org/2000/svg" xmlns:xlink="http://www.w3.org/1999/xlink" x="0px" y="0px"
	 viewBox="0 0 75 75" style="enable-background:new 0 0 75 75;" xml:space="preserve">
<style type="text/css">
	.st0{fill:none;stroke:#FAEBD7;stroke-width:2;stroke-linecap:round;stroke-linejoin:round;}
</style>
<title>weather_icon</title>
<path class="st0" d="M20.4,54.9h-8.8c-5.3,0-9.6-4.3-9.6-9.6s4.3-9.7,9.6-9.7h1.5c0.8-5.8,6.2-9.9,12-9.1c1,0.1,1.9,0.4,2.8,0.8
	c1.9-8.6,10.4-14,18.9-12.1c4.9,1.1,9,4.4,11.1,9c5-1.3,10,1.7,11.3,6.7c0.6,2.1,0.3,4.4-0.6,6.3c4.5,2.9,5.8,8.8,2.9,13.3
	c-1.8,2.8-4.8,4.4-8.1,4.4h-19"/>
<path class="st0" d="M51.2,40l-3.6-5.7L44.1,40c-1.2,2-0.6,4.6,1.3,5.8c0.7,0.4,1.5,0.6,2.2,0.6l0,0c2.3,0,4.2-1.9,4.2-4.2
	C51.9,41.5,51.7,40.7,51.2,40z"/>
<path class="st0" d="M38.1,54.3L32,44.6l-6.1,9.7c-2.1,3.4-1.1,7.8,2.3,9.9c1.1,0.7,2.5,1.1,3.8,1.1l0,0c4,0,7.2-3.2,7.2-7.2
	C39.2,56.8,38.8,55.5,38.1,54.3z"/>
<path class="st0" d="M18.3,27.1c-0.8-6.7,2-13,7.2-15.2C16,11.1,7.7,18.1,6.8,27.5c-0.2,2.2,0,4.5,0.7,6.6c0.2,0.7,0.5,1.4,0.8,2.1"
	/>
</svg>
