<?xml version="1.0" encoding="utf-8"?>
<!-- Generator: Adobe Illustrator 21.1.0, SVG Export Plug-In . SVG Version: 6.00 Build 0)  -->
<svg version="1.1" id="Layer_2" xmlns="http://www.w3.org/2000/svg" xmlns:xlink="http://www.w3.org/1999/xlink" x="0px" y="0px"
	 viewBox="0 0 75 75" style="enable-background:new 0 0 75 75;" xml:space="preserve">
<style type="text/css">
	.st0{fill:none;stroke:#FAEBD7;stroke-width:2;stroke-linecap:round;stroke-linejoin:round;}
</style>
<title>weather_icon</title>
<path class="st0" d="M35.1,46.4H11.6c-5.3,0-9.6-4.3-9.6-9.7s4.3-9.6,9.6-9.6h1.5c0.8-5.8,6.2-9.9,12-9.1c1,0.1,1.9,0.4,2.8,0.8
	c1.9-8.6,10.4-14,18.9-12.1c4.9,1.1,9,4.4,11.1,9c5-1.3,10,1.7,11.3,6.7c0.6,2.1,0.3,4.4-0.6,6.3c4.5,2.9,5.8,8.8,2.9,13.3
	c-1.8,2.8-4.8,4.4-8.1,4.4H58"/>
<line class="st0" x1="46.9" y1="41" x2="46.9" y2="51.8"/>
<line class="st0" x1="42.1" y1="43.8" x2="51.5" y2="49.2"/>
<line class="st0" x1="42.1" y1="49.3" x2="51.5" y2="43.9"/>
<line class="st0" x1="26.7" y1="50.2" x2="26.7" y2="61.1"/>
<line class="st0" x1="21.9" y1="53" x2="31.2" y2="58.4"/>
<line class="st0" x1="21.9" y1="58.6" x2="31.2" y2="53.2"/>
<line class="st0" x1="43.5" y1="60.1" x2="43.5" y2="68.6"/>
<line class="st0" x1="39.6" y1="62.2" x2="47.1" y2="66.5"/>
<line class="st0" x1="39.6" y1="66.6" x2="47.1" y2="62.4"/>
</svg>
