<?xml version="1.0" encoding="utf-8"?>
<!-- Generator: Adobe Illustrator 21.1.0, SVG Export Plug-In . SVG Version: 6.00 Build 0)  -->
<svg version="1.1" id="Layer_2" xmlns="http://www.w3.org/2000/svg" xmlns:xlink="http://www.w3.org/1999/xlink" x="0px" y="0px"
	 viewBox="0 0 93.5 75" style="enable-background:new 0 0 93.5 75;" xml:space="preserve">
<style type="text/css">
	.st0{fill:none;stroke:#FAEBD7;stroke-width:2;stroke-linecap:round;stroke-linejoin:round;}
</style>
<title>weather_icon</title>
<path class="st0" d="M17.3,50.3c-7.5-6.2-8.6-17.4-2.4-25s17.4-8.6,25-2.4c2.5,2.1,4.4,4.9,5.5,8"/>
<line class="st0" x1="28.6" y1="5.2" x2="28.6" y2="16.3"/>
<line class="st0" x1="1.3" y1="20.9" x2="11" y2="26.5"/>
<line class="st0" x1="1.3" y1="52.4" x2="11" y2="46.8"/>
<line class="st0" x1="55.9" y1="20.9" x2="46.2" y2="26.5"/>
<line class="st0" x1="14.8" y1="12.8" x2="19.7" y2="21.2"/>
<line class="st0" x1="1" y1="36.7" x2="10.8" y2="36.7"/>
<line class="st0" x1="42.4" y1="12.8" x2="37.5" y2="21.2"/>
<path class="st0" d="M71.3,69.8H19.5c-5.3,0-9.6-4.3-9.6-9.7s4.3-9.6,9.6-9.6h1.5c0.8-5.8,6.2-9.9,12-9.1c1,0.1,1.9,0.4,2.8,0.8
	c1.9-8.6,10.4-14,18.9-12.1c4.9,1.1,9,4.4,11.1,9c5-1.3,10,1.7,11.3,6.6c0.2,0.8,0.3,1.6,0.3,2.4"/>
<line class="st0" x1="56.8" y1="52.2" x2="89.6" y2="52.2"/>
<line class="st0" x1="68.6" y1="58.9" x2="92.5" y2="58.9"/>
<line class="st0" x1="59.8" y1="58.9" x2="63.2" y2="58.9"/>
<line class="st0" x1="85.3" y1="64.8" x2="89.1" y2="64.8"/>
<line class="st0" x1="56.3" y1="64.8" x2="81.2" y2="64.8"/>
</svg>
