<?xml version="1.0" encoding="utf-8"?>
<!-- Generator: Adobe Illustrator 21.1.0, SVG Export Plug-In . SVG Version: 6.00 Build 0)  -->
<svg version="1.1" id="Layer_2" xmlns="http://www.w3.org/2000/svg" xmlns:xlink="http://www.w3.org/1999/xlink" x="0px" y="0px"
	 viewBox="0 0 85 75" style="enable-background:new 0 0 85 75;" xml:space="preserve">
<style type="text/css">
	.st0{fill:none;stroke:#FAEBD7;stroke-width:2;stroke-linecap:round;stroke-linejoin:round;}
</style>
<title>weather_icon</title>
<path class="st0" d="M62.7,59.5H10.8c-5.3,0-9.6-4.3-9.6-9.6s4.3-9.7,9.6-9.7h1.5c0.8-5.8,6.2-9.9,12-9.1c1,0.1,1.9,0.4,2.8,0.8
	c1.9-8.6,10.4-14,18.9-12.1c4.9,1.1,9,4.4,11.1,9c5-1.3,10,1.7,11.3,6.6c0.2,0.8,0.3,1.6,0.3,2.4"/>
<line class="st0" x1="48.1" y1="41.9" x2="80.8" y2="41.9"/>
<line class="st0" x1="59.9" y1="48.6" x2="83.8" y2="48.6"/>
<line class="st0" x1="51" y1="48.6" x2="54.5" y2="48.6"/>
<line class="st0" x1="76.6" y1="54.5" x2="80.3" y2="54.5"/>
<line class="st0" x1="47.6" y1="54.5" x2="72.5" y2="54.5"/>
<path class="st0" d="M19.8,30.9c-0.8-6.7,2-13,7.2-15.2c-9.5-0.8-17.8,6.2-18.6,15.6c-0.2,2.2,0,4.5,0.7,6.6
	c0.2,0.7,0.5,1.4,0.9,2.1"/>
</svg>
