<svg id="Layer_2" data-name="Layer 2" xmlns="http://www.w3.org/2000/svg" viewBox="0 0 73.54 75"><defs><style>.cls-1{fill:none;stroke:#231f20;stroke-linecap:round;stroke-linejoin:round;stroke-width:2px;}</style></defs><title>weather_icon</title><path class="cls-1" d="M19,48.57h-8a9.65,9.65,0,0,1,0-19.3H12.6a10.67,10.67,0,0,1,14.82-8.33,15.89,15.89,0,0,1,30-3.1,9.29,9.29,0,0,1,10.72,13,9.64,9.64,0,0,1-5.23,17.75H52.5"/><polyline class="cls-1" points="45.01 29.98 38.66 44.64 49.08 44.64 43.33 57.16"/><polyline class="cls-1" points="29.02 38.88 25.5 47.03 31.29 47.03 26.13 58.25"/><line class="cls-1" x1="1" y1="66.48" x2="4.31" y2="58.84"/><line class="cls-1" x1="17.51" y1="66.48" x2="20.82" y2="58.84"/><line class="cls-1" x1="34.02" y1="66.48" x2="37.33" y2="58.84"/><line class="cls-1" x1="50.52" y1="66.48" x2="53.83" y2="58.84"/><line class="cls-1" x1="67.03" y1="66.48" x2="70.34" y2="58.84"/></svg>