<svg id="Layer_2" data-name="Layer 2" xmlns="http://www.w3.org/2000/svg" viewBox="0 0 89.68 75"><defs><style>.cls-1{fill:none;stroke:#231f20;stroke-linecap:round;stroke-linejoin:round;stroke-width:2px;}</style></defs><title>weather_icon</title><path class="cls-1" d="M23.26,24.35a9.61,9.61,0,0,1,4-.85h1.52a10.67,10.67,0,0,1,14.82-8.33,15.89,15.89,0,0,1,30-3.1A9.29,9.29,0,0,1,84.26,25,9.64,9.64,0,0,1,79,42.8H54.62"/><path class="cls-1" d="M49.22,28.42H16.83a6.05,6.05,0,0,1-6.05-6.05h0a6.05,6.05,0,0,1,6.05-6.05"/><path class="cls-1" d="M49.22,42.8H21.52A5.18,5.18,0,0,0,16.34,48h0a5.18,5.18,0,0,0,5.18,5.18"/><line class="cls-1" x1="39.61" y1="33.28" x2="1" y2="33.28"/><line class="cls-1" x1="49.22" y1="33.28" x2="45.31" y2="33.28"/><line class="cls-1" x1="25.88" y1="38.14" x2="23.26" y2="38.14"/><line class="cls-1" x1="49.22" y1="38.14" x2="30" y2="38.14"/><line class="cls-1" x1="35.85" y1="56.97" x2="39.16" y2="49.33"/><line class="cls-1" x1="52.36" y1="56.97" x2="55.67" y2="49.33"/><line class="cls-1" x1="68.87" y1="56.97" x2="72.18" y2="49.33"/><line class="cls-1" x1="29.23" y1="72.25" x2="32.54" y2="64.61"/><line class="cls-1" x1="45.74" y1="72.25" x2="49.05" y2="64.61"/><line class="cls-1" x1="62.25" y1="72.25" x2="65.56" y2="64.61"/></svg>