<?xml version="1.0" encoding="utf-8"?>
<!-- Generator: Adobe Illustrator 21.1.0, SVG Export Plug-In . SVG Version: 6.00 Build 0)  -->
<svg version="1.1" id="Layer_2" xmlns="http://www.w3.org/2000/svg" xmlns:xlink="http://www.w3.org/1999/xlink" x="0px" y="0px"
	 viewBox="0 0 82 75" style="enable-background:new 0 0 82 75;" xml:space="preserve">
<style type="text/css">
	.st0{fill:none;stroke:#FAEBD7;stroke-width:1.96;stroke-linecap:round;stroke-linejoin:round;}
</style>
<title>weather_icon</title>
<path class="st0" d="M18,44.3c-7.4-6-8.6-16.9-2.6-24.4s16.9-8.6,24.4-2.6c2.5,2,4.3,4.6,5.4,7.6"/>
<line class="st0" x1="28.9" y1="0" x2="28.9" y2="10.9"/>
<line class="st0" x1="2.2" y1="15.4" x2="11.6" y2="20.9"/>
<line class="st0" x1="2.2" y1="46.2" x2="11.6" y2="40.7"/>
<line class="st0" x1="55.5" y1="15.4" x2="46.1" y2="20.9"/>
<line class="st0" x1="15.4" y1="7.4" x2="20.2" y2="15.7"/>
<line class="st0" x1="1.9" y1="30.8" x2="11.5" y2="30.8"/>
<line class="st0" x1="42.3" y1="7.4" x2="37.6" y2="15.7"/>
<path class="st0" d="M20,44.3h1.5c0.8-5.7,6-9.7,11.8-8.9c1,0.1,1.9,0.4,2.8,0.8c1.9-8.4,10.2-13.6,18.6-11.7
	c4.7,1.1,8.7,4.3,10.7,8.7c4.9-1.2,9.8,1.7,11,6.5c0.5,2,0.3,4.2-0.6,6.1c4.4,2.8,5.6,8.7,2.8,13c-1.7,2.7-4.7,4.3-7.9,4.3H20
	c-5.2,0-9.4-4.2-9.4-9.4S14.8,44.3,20,44.3L20,44.3z"/>
<line class="st0" x1="18.9" y1="75" x2="22.1" y2="67.5"/>
<line class="st0" x1="35" y1="75" x2="38.3" y2="67.5"/>
<line class="st0" x1="51.2" y1="75" x2="54.4" y2="67.5"/>
<line class="st0" x1="67.3" y1="75" x2="70.6" y2="67.5"/>
</svg>
