<svg id="Layer_2" data-name="Layer 2" xmlns="http://www.w3.org/2000/svg" viewBox="0 0 75 75"><defs><style>.cls-1{fill:none;stroke:#231f20;stroke-linecap:round;stroke-linejoin:round;stroke-width:1.98px;}</style></defs><title>weather_icon</title><path class="cls-1" d="M40.35,6.33a23.78,23.78,0,0,0-3.94,21.21"/><path class="cls-1" d="M47.64.05A23.85,23.85,0,0,0,44.18,2.4"/><path class="cls-1" d="M24.39,9.08a23.77,23.77,0,0,0,7.19,20.34"/><path class="cls-1" d="M27.56,0a23.85,23.85,0,0,0-1.83,3.76"/><path class="cls-1" d="M11.93,19.45a23.77,23.77,0,0,0,16.4,14"/><path class="cls-1" d="M10.14,10a23.85,23.85,0,0,0,.3,4.17"/><path class="cls-1" d="M6.33,34.65a23.78,23.78,0,0,0,21.21,3.94"/><path class="cls-1" d="M.05,27.36A23.84,23.84,0,0,0,2.4,30.82"/><path class="cls-1" d="M9.08,50.61a23.77,23.77,0,0,0,20.34-7.19"/><path class="cls-1" d="M0,47.44a23.85,23.85,0,0,0,3.76,1.83"/><path class="cls-1" d="M19.45,63.07a23.77,23.77,0,0,0,14-16.4"/><path class="cls-1" d="M10,64.86a23.85,23.85,0,0,0,4.17-.3"/><path class="cls-1" d="M34.65,68.67a23.78,23.78,0,0,0,3.94-21.21"/><path class="cls-1" d="M27.36,74.95a23.85,23.85,0,0,0,3.46-2.34"/><path class="cls-1" d="M50.61,65.92a23.78,23.78,0,0,0-7.19-20.34"/><path class="cls-1" d="M47.44,75a23.86,23.86,0,0,0,1.83-3.76"/><path class="cls-1" d="M63.07,55.55a23.77,23.77,0,0,0-16.4-14"/><path class="cls-1" d="M64.86,65a23.85,23.85,0,0,0-.3-4.17"/><path class="cls-1" d="M68.67,40.35a23.78,23.78,0,0,0-21.21-3.94"/><path class="cls-1" d="M74.95,47.64a23.85,23.85,0,0,0-2.34-3.46"/><path class="cls-1" d="M65.92,24.39a23.77,23.77,0,0,0-20.34,7.19"/><path class="cls-1" d="M75,27.56a23.85,23.85,0,0,0-3.76-1.83"/><path class="cls-1" d="M55.55,11.93a23.77,23.77,0,0,0-14,16.4"/><path class="cls-1" d="M65,10.14a23.85,23.85,0,0,0-4.17.3"/></svg>