<?xml version="1.0" encoding="utf-8"?>
<!-- Generator: Adobe Illustrator 21.1.0, SVG Export Plug-In . SVG Version: 6.00 Build 0)  -->
<svg version="1.1" id="Layer_2" xmlns="http://www.w3.org/2000/svg" xmlns:xlink="http://www.w3.org/1999/xlink" x="0px" y="0px"
	 viewBox="0 0 68 75" style="enable-background:new 0 0 68 75;" xml:space="preserve">
<style type="text/css">
	.st0{fill:none;stroke:#FAEBD7;stroke-width:2;stroke-linecap:round;stroke-linejoin:round;}
</style>
<title>weather_icon</title>
<line class="st0" x1="34.1" y1="0.2" x2="34.1" y2="74.8"/>
<line class="st0" x1="1" y1="19.4" x2="65.6" y2="56.6"/>
<line class="st0" x1="1" y1="57.6" x2="65.6" y2="20.3"/>
<line class="st0" x1="23.9" y1="6.5" x2="34.1" y2="17.4"/>
<line class="st0" x1="44.4" y1="6.5" x2="34.1" y2="17.4"/>
<line class="st0" x1="1.3" y1="31.4" x2="15.9" y2="27.9"/>
<line class="st0" x1="11.6" y1="13.6" x2="15.9" y2="27.9"/>
<line class="st0" x1="11.6" y1="63.3" x2="15.9" y2="49"/>
<line class="st0" x1="1.3" y1="45.6" x2="15.9" y2="49"/>
<line class="st0" x1="44.4" y1="70.5" x2="34.1" y2="59.6"/>
<line class="st0" x1="23.9" y1="70.5" x2="34.1" y2="59.6"/>
<line class="st0" x1="67" y1="45.6" x2="52.4" y2="49"/>
<line class="st0" x1="56.7" y1="63.3" x2="52.4" y2="49"/>
<line class="st0" x1="56.7" y1="13.6" x2="52.4" y2="27.9"/>
<line class="st0" x1="67" y1="31.4" x2="52.4" y2="27.9"/>
<path class="st0" d="M18.6,29.5L18.6,29.5c6.6,0.7,12.9-2.9,15.5-9l0,0c2.7,6.1,9,9.7,15.5,9l0,0c-3.9,5.3-3.9,12.6,0,17.9l0,0
	c-6.6-0.7-12.9,2.9-15.5,9l0,0c-2.7-6.1-9-9.7-15.5-9l0,0C22.5,42.1,22.5,34.9,18.6,29.5z"/>
</svg>
