<svg id="Layer_2" data-name="Layer 2" xmlns="http://www.w3.org/2000/svg" viewBox="0 0 89.68 75"><defs><style>.cls-1{fill:none;stroke:#231f20;stroke-linecap:round;stroke-linejoin:round;stroke-width:2px;}</style></defs><title>weather_icon</title><path class="cls-1" d="M23.26,33.9a9.62,9.62,0,0,1,4-.85h1.52a10.67,10.67,0,0,1,14.82-8.33,15.89,15.89,0,0,1,30-3.1,9.29,9.29,0,0,1,10.72,13A9.64,9.64,0,0,1,79,52.35H54.62"/><path class="cls-1" d="M49.22,38H16.83a6.05,6.05,0,0,1-6.05-6.05h0a6.05,6.05,0,0,1,6.05-6.05"/><path class="cls-1" d="M49.22,52.34H21.52a5.18,5.18,0,0,0-5.18,5.18h0a5.18,5.18,0,0,0,5.18,5.18"/><line class="cls-1" x1="39.61" y1="42.83" x2="1" y2="42.83"/><line class="cls-1" x1="49.22" y1="42.83" x2="45.31" y2="42.83"/><line class="cls-1" x1="25.88" y1="47.69" x2="23.26" y2="47.69"/><line class="cls-1" x1="49.22" y1="47.69" x2="30" y2="47.69"/></svg>