<svg id="Layer_2" data-name="Layer 2" xmlns="http://www.w3.org/2000/svg" viewBox="0 0 87.15 75"><defs><style>.cls-1{fill:none;stroke:#231f20;stroke-linecap:round;stroke-linejoin:round;stroke-width:2px;}</style></defs><title>weather_icon</title><path class="cls-1" d="M45.61,8.95A13.55,13.55,0,0,0,22,10.79a7.92,7.92,0,0,0-9.14,11.07A8.23,8.23,0,0,0,15,36.7"/><path class="cls-1" d="M24.69,25.45h1.52A10.67,10.67,0,0,1,41,17.13,15.89,15.89,0,0,1,71,14,9.29,9.29,0,0,1,81.73,27,9.64,9.64,0,0,1,76.5,44.75H24.69a9.65,9.65,0,1,1,0-19.3Z"/><line class="cls-1" x1="23.79" y1="56.88" x2="27.1" y2="49.24"/><line class="cls-1" x1="40.3" y1="56.88" x2="43.61" y2="49.24"/><line class="cls-1" x1="56.81" y1="56.88" x2="60.12" y2="49.24"/><line class="cls-1" x1="73.32" y1="56.88" x2="76.63" y2="49.24"/><line class="cls-1" x1="17.19" y1="72.16" x2="20.5" y2="64.52"/><line class="cls-1" x1="7.6" y1="56.88" x2="10.91" y2="49.24"/><line class="cls-1" x1="1" y1="72.16" x2="4.31" y2="64.52"/><line class="cls-1" x1="33.7" y1="72.16" x2="37.01" y2="64.52"/><line class="cls-1" x1="50.21" y1="72.16" x2="53.52" y2="64.52"/><line class="cls-1" x1="66.72" y1="72.16" x2="70.03" y2="64.52"/></svg>